<svg width="26" height="22" viewBox="0 0 26 22" fill="none" xmlns="http://www.w3.org/2000/svg">
<path d="M25.8558 2.48625C24.9031 2.90875 23.8814 3.19312 22.8069 3.32312C23.9037 2.665 24.7467 1.625 25.1408 0.387969C24.117 0.995312 22.9795 1.43609 21.7709 1.67375C20.8041 0.641875 19.4269 0 17.9014 0C14.9703 0 12.5958 2.3725 12.5958 5.30359C12.5958 5.71797 12.6425 6.12219 12.7339 6.51219C8.32406 6.29078 4.41797 4.17828 1.79969 0.968906C1.34266 1.755 1.08266 2.665 1.08266 3.63594C1.08266 5.47625 2.01703 7.10125 3.44297 8.05391C2.57156 8.02547 1.75297 7.78578 1.03797 7.38766C1.03797 7.41 1.03797 7.43234 1.03797 7.45469C1.03797 10.0262 2.86812 12.1692 5.29141 12.6587C4.84859 12.7786 4.37937 12.8436 3.89594 12.8436C3.55266 12.8436 3.21953 12.8111 2.89656 12.7461C3.57297 14.8525 5.53109 16.3902 7.85078 16.4328C6.03687 17.8547 3.74969 18.7017 1.26344 18.7017C0.834844 18.7017 0.412344 18.6773 0 18.6266C2.34609 20.1337 5.135 21.0112 8.13109 21.0112C17.8892 21.0112 23.2253 12.9289 23.2253 5.91906C23.2253 5.68953 23.2192 5.45797 23.2111 5.2325C24.247 4.485 25.1448 3.55062 25.8558 2.48625Z" fill="white"/>
</svg>
