<svg width="14" height="24" viewBox="0 0 14 24" fill="none" xmlns="http://www.w3.org/2000/svg">
<path d="M10.3167 4.64344H12.8964C13.1808 4.64344 13.4123 4.41188 13.4123 4.1275V0.65C13.4123 0.379844 13.2052 0.156406 12.935 0.136094C12.1144 0.0792189 10.5097 0 9.35797 0C6.18922 0 4.12547 1.89719 4.12547 5.34828V8.76891H0.515938C0.231563 8.76891 0 9.00047 0 9.28484V12.8964C0 13.1808 0.231563 13.4123 0.515938 13.4123H4.12547V23.2152C4.12547 23.4975 4.35703 23.7291 4.64141 23.7291H8.25297C8.53734 23.7291 8.76891 23.4975 8.76891 23.2152V13.4123H12.4942C12.7562 13.4123 12.9777 13.2153 13.0061 12.9533L13.4083 9.34172C13.4428 9.03703 13.2052 8.76891 12.8964 8.76891H8.76891V6.19125C8.76891 5.33609 9.46156 4.64344 10.3167 4.64344Z" fill="white"/>
</svg>
